<?xml version="1.0" encoding="UTF-8"?>
<svg width="189px" height="304px" viewBox="0 0 189 304" version="1.1" xmlns="http://www.w3.org/2000/svg" xmlns:xlink="http://www.w3.org/1999/xlink">
    <!-- Generator: Sketch 46.2 (44496) - http://www.bohemiancoding.com/sketch -->
    <title>Page 1</title>
    <desc>Created with Sketch.</desc>
    <defs></defs>
    <g id="Symbols" stroke="none" stroke-width="1" fill="none" fill-rule="evenodd" stroke-linecap="round" opacity="0.5">
        <g id="Arms-+-hands-Background" transform="translate(-158.000000, -179.000000)" stroke="#9de4d6" stroke-width="1.867">
            <g id="Page-1">
                <g transform="translate(-108.000000, -135.000000)">
                    <g transform="translate(267.000000, 315.000000)">
                        <path d="M69.7061297,302 C25.3289279,301.434874 -1.09371862,228.178117 0.0347485727,141.577091 C1.13569218,54.9669497 37.6319727,-0.533907924 82,0.00387341959" id="Stroke-1"></path>
                        <path d="M75.9979458,302 C44.316582,301.598516 24.9190803,228.710957 26.0466288,142.01783 C27.1375091,55.3155776 53.3278032,-0.390299933 85,0.00205923734" id="Stroke-3"></path>
                        <path d="M83.2937452,301 C64.3369085,300.763294 51.9459226,228.476861 53.0707132,141.978952 C54.1589252,55.4810435 70.0431633,-0.235954944 89,0.000751258723" id="Stroke-5"></path>
                        <path d="M90.6020108,301 C84.3816629,300.917976 79.0447847,229.001359 80.1446143,142.411601 C81.217399,55.8218425 86.7796521,-0.091026273 93,0.000111247399" id="Stroke-7"></path>
                        <path d="M97.8489692,300.999929 C104.166031,301.08204 105.71791,229.536167 106.84074,142.845414 C107.927056,56.1637841 103.32619,0.0729873738 97,0" id="Stroke-9"></path>
                        <path d="M105.158181,299.999363 C124.237974,300.245138 132.821121,229.298297 133.943462,142.803957 C135.038205,56.3187202 120.098193,0.218466023 101,0" id="Stroke-11"></path>
                        <path d="M112.451057,299.9983 C144.251434,300.399233 159.843462,229.82587 160.96572,143.242514 C162.060381,56.6682692 136.800377,0.373596887 105,0" id="Stroke-13"></path>
                        <path d="M119.606276,299.996607 C163.547861,300.562157 185.86826,230.351931 186.976108,143.67692 C188.047632,57.0110312 152.941584,0.538184135 109,0" id="Stroke-15"></path>
                    </g>
                </g>
            </g>
        </g>
    </g>
</svg>
